<svg width="641" height="520" viewBox="0 0 641 520" fill="none" xmlns="http://www.w3.org/2000/svg">
<path fill-rule="evenodd" clip-rule="evenodd" d="M13.5693 284.454C13.5826 284.422 13.587 284.392 13.587 284.378C13.587 284.363 13.5826 284.333 13.5693 284.302C13.558 284.275 13.5454 284.259 13.5368 284.251C13.5282 284.242 13.5157 284.233 13.4966 284.225C13.4867 284.221 13.4761 284.217 13.4661 284.215C13.4582 284.214 13.4531 284.213 13.4518 284.213C13.452 284.213 13.4521 284.213 13.4521 284.213C13.4521 284.213 13.452 284.213 13.4518 284.213C13.4516 284.213 13.4515 284.213 13.4515 284.213C13.4515 284.213 13.4516 284.213 13.4518 284.213C13.4506 284.213 13.4455 284.214 13.4375 284.215C13.4275 284.217 13.417 284.221 13.407 284.225C13.388 284.233 13.3755 284.242 13.3669 284.251C13.3582 284.259 13.3456 284.275 13.3343 284.302C13.321 284.333 13.3167 284.363 13.3167 284.378C13.3167 284.392 13.321 284.422 13.3343 284.454C13.3456 284.48 13.3582 284.496 13.3669 284.504C13.3755 284.513 13.388 284.522 13.407 284.53C13.417 284.535 13.4275 284.538 13.4375 284.54C13.448 284.542 13.4535 284.542 13.4518 284.542C13.4502 284.542 13.4557 284.542 13.4661 284.54C13.4761 284.538 13.4867 284.535 13.4966 284.53C13.5157 284.522 13.5282 284.513 13.5368 284.504C13.5454 284.496 13.558 284.48 13.5693 284.454ZM0 284.378C0 276.936 6.05084 270.955 13.4518 270.955C20.8528 270.955 26.9037 276.936 26.9037 284.378C26.9037 291.819 20.8528 297.8 13.4518 297.8C6.05086 297.8 0 291.819 0 284.378Z" fill="#2EAADC"/>
<path fill-rule="evenodd" clip-rule="evenodd" d="M84.8959 193.587C65.1232 193.587 49.1143 209.568 49.1143 229.181V255.634C49.1143 259.386 46.0728 262.427 42.3208 262.427C38.5689 262.427 35.5273 259.386 35.5273 255.634V229.181C35.5273 202.008 57.6759 180 84.8959 180C112.116 180 134.264 202.008 134.264 229.181V244.033C134.264 247.785 131.223 250.826 127.471 250.826C123.719 250.826 120.677 247.785 120.677 244.033V229.181C120.677 209.568 104.668 193.587 84.8959 193.587Z" fill="#2EAADC"/>
<path fill-rule="evenodd" clip-rule="evenodd" d="M42.323 249.159C46.075 249.159 49.1165 252.201 49.1165 255.953C49.1165 275.349 33.3062 291.047 13.897 291.047C10.1451 291.047 7.10352 288.006 7.10352 284.254C7.10352 280.502 10.1451 277.46 13.897 277.46C25.8589 277.46 35.5296 267.789 35.5296 255.953C35.5296 252.201 38.5711 249.159 42.323 249.159Z" fill="#2EAADC"/>
<path fill-rule="evenodd" clip-rule="evenodd" d="M182.986 210.98C183.498 214.697 180.901 218.125 177.184 218.637C171.865 219.37 168.304 221.723 165.84 225.599C163.19 229.767 161.47 236.263 161.41 245.669C161.283 264.958 145.522 280.529 126.191 280.529C106.782 280.529 90.9713 264.832 90.9713 245.435V228.926C90.9713 225.376 88.087 222.461 84.4481 222.461C80.8091 222.461 77.9248 225.376 77.9248 228.926V252.064C77.9248 273.786 95.6045 291.483 117.548 291.483C136.957 291.483 152.767 307.181 152.767 326.577C152.767 330.329 149.726 333.371 145.974 333.371C142.222 333.371 139.18 330.329 139.18 326.577C139.18 314.741 129.51 305.07 117.548 305.07C88.1449 305.07 64.3379 281.334 64.3379 252.064V228.735C64.4407 217.713 73.4255 208.874 84.4481 208.874C95.4707 208.874 104.455 217.713 104.557 228.735L104.558 245.435C104.558 257.271 114.229 266.942 126.191 266.942C138.153 266.942 147.823 257.271 147.823 245.435C147.908 234.761 149.842 225.439 154.374 218.31C159.112 210.856 166.307 206.42 175.329 205.177C179.046 204.665 182.474 207.263 182.986 210.98Z" fill="#FF9400"/>
<path fill-rule="evenodd" clip-rule="evenodd" d="M146.093 326.653C146.106 326.622 146.11 326.592 146.11 326.577C146.11 326.563 146.106 326.533 146.093 326.501C146.081 326.475 146.069 326.459 146.06 326.451C146.052 326.442 146.039 326.432 146.02 326.424C146.01 326.42 146 326.417 145.99 326.415C145.982 326.413 145.976 326.413 145.975 326.413C145.977 326.413 145.971 326.413 145.961 326.415C145.951 326.417 145.94 326.42 145.93 326.424C145.911 326.432 145.899 326.442 145.89 326.451C145.882 326.459 145.869 326.475 145.858 326.501C145.844 326.533 145.84 326.563 145.84 326.577C145.84 326.592 145.844 326.622 145.858 326.653C145.869 326.68 145.882 326.696 145.89 326.704C145.899 326.713 145.911 326.722 145.93 326.73C145.94 326.734 145.951 326.738 145.961 326.74C145.971 326.742 145.977 326.742 145.975 326.742C145.976 326.742 145.982 326.741 145.99 326.74C146 326.738 146.01 326.734 146.02 326.73C146.039 326.722 146.052 326.713 146.06 326.704C146.069 326.696 146.081 326.68 146.093 326.653ZM145.975 326.742C145.975 326.742 145.975 326.742 145.975 326.742C145.975 326.742 145.975 326.742 145.975 326.742ZM132.523 326.577C132.523 319.136 138.574 313.155 145.975 313.155C153.376 313.155 159.427 319.136 159.427 326.577C159.427 334.019 153.376 340 145.975 340C138.574 340 132.523 334.019 132.523 326.577ZM145.975 326.413C145.975 326.413 145.975 326.413 145.975 326.413C145.975 326.413 145.975 326.413 145.975 326.413Z" fill="#FF9400"/>
<path fill-rule="evenodd" clip-rule="evenodd" d="M176.001 212.255C176.014 212.224 176.019 212.194 176.019 212.179C176.019 212.165 176.014 212.135 176.001 212.103C175.99 212.077 175.977 212.061 175.968 212.053C175.96 212.044 175.947 212.035 175.928 212.027C175.918 212.022 175.908 212.019 175.898 212.017C175.89 212.015 175.885 212.015 175.883 212.015C175.885 212.015 175.88 212.015 175.869 212.017C175.859 212.019 175.849 212.022 175.839 212.027C175.82 212.035 175.807 212.044 175.799 212.053C175.79 212.061 175.777 212.077 175.766 212.103C175.753 212.135 175.748 212.165 175.748 212.179C175.748 212.194 175.753 212.224 175.766 212.255C175.777 212.282 175.79 212.298 175.799 212.306C175.807 212.315 175.82 212.324 175.839 212.332C175.849 212.336 175.859 212.34 175.869 212.342C175.88 212.344 175.885 212.344 175.883 212.344C175.885 212.344 175.89 212.343 175.898 212.342C175.908 212.34 175.918 212.336 175.928 212.332C175.947 212.324 175.96 212.315 175.968 212.306C175.977 212.298 175.99 212.282 176.001 212.255ZM175.883 212.344C175.883 212.344 175.883 212.344 175.883 212.344C175.883 212.344 175.883 212.344 175.883 212.344ZM162.432 212.179C162.432 204.738 168.482 198.757 175.883 198.757C183.284 198.757 189.335 204.738 189.335 212.179C189.335 219.621 183.284 225.602 175.883 225.602C168.482 225.602 162.432 219.621 162.432 212.179ZM175.883 212.015C175.883 212.015 175.883 212.015 175.883 212.015C175.883 212.015 175.883 212.015 175.883 212.015Z" fill="#FF9400"/>
<path d="M237.336 234.293H259.121V245.622H259.412C261.735 241.264 264.495 238.021 267.69 235.891C270.885 233.664 274.903 232.55 279.745 232.55C281.003 232.55 282.262 232.599 283.521 232.696C284.779 232.792 285.941 232.986 287.006 233.277V253.174C285.457 252.69 283.908 252.351 282.359 252.157C280.906 251.867 279.357 251.721 277.711 251.721C273.548 251.721 270.256 252.302 267.835 253.464C265.415 254.626 263.527 256.272 262.171 258.402C260.912 260.435 260.089 262.904 259.702 265.809C259.315 268.714 259.121 271.909 259.121 275.395V304.877H237.336V234.293Z" fill="#2EAADC"/>
<path d="M360.734 292.678C357.249 297.131 352.843 300.569 347.518 302.989C342.193 305.41 336.674 306.62 330.961 306.62C325.539 306.62 320.408 305.749 315.566 304.006C310.822 302.263 306.659 299.794 303.076 296.599C299.591 293.307 296.831 289.386 294.798 284.835C292.765 280.284 291.748 275.201 291.748 269.585C291.748 263.97 292.765 258.886 294.798 254.336C296.831 249.785 299.591 245.912 303.076 242.717C306.659 239.425 310.822 236.907 315.566 235.165C320.408 233.422 325.539 232.55 330.961 232.55C335.996 232.55 340.547 233.422 344.613 235.165C348.777 236.907 352.262 239.425 355.07 242.717C357.975 245.912 360.202 249.785 361.751 254.336C363.3 258.886 364.075 263.97 364.075 269.585V276.411H313.533C314.405 280.575 316.293 283.915 319.197 286.433C322.102 288.853 325.684 290.063 329.945 290.063C333.527 290.063 336.529 289.289 338.949 287.74C341.467 286.094 343.645 284.012 345.485 281.495L360.734 292.678ZM342.29 261.597C342.386 257.918 341.176 254.771 338.659 252.157C336.141 249.543 332.898 248.236 328.928 248.236C326.507 248.236 324.377 248.623 322.538 249.398C320.698 250.172 319.1 251.189 317.745 252.448C316.486 253.609 315.47 255.013 314.695 256.659C314.017 258.209 313.63 259.855 313.533 261.597H342.29Z" fill="#2EAADC"/>
<path d="M425.105 257.095C424.04 255.546 422.539 254.287 420.603 253.319C418.667 252.254 416.585 251.721 414.358 251.721C408.839 251.721 404.53 253.367 401.432 256.659C398.43 259.951 396.93 264.26 396.93 269.585C396.93 274.911 398.43 279.219 401.432 282.511C404.53 285.803 408.839 287.449 414.358 287.449C416.778 287.449 418.86 286.917 420.603 285.852C422.346 284.787 423.847 283.528 425.105 282.075L439.484 297.18C436.095 300.666 432.077 303.135 427.429 304.587C422.878 305.942 418.521 306.62 414.358 306.62C408.936 306.62 403.804 305.749 398.963 304.006C394.219 302.263 390.055 299.794 386.473 296.599C382.987 293.307 380.228 289.386 378.194 284.835C376.161 280.284 375.144 275.201 375.144 269.585C375.144 263.97 376.161 258.886 378.194 254.336C380.228 249.785 382.987 245.912 386.473 242.717C390.055 239.425 394.219 236.907 398.963 235.165C403.804 233.422 408.936 232.55 414.358 232.55C418.521 232.55 422.878 233.277 427.429 234.729C432.077 236.084 436.095 238.505 439.484 241.991L425.105 257.095Z" fill="#2EAADC"/>
<path d="M491.684 296.018H491.394C488.973 299.794 485.729 302.505 481.663 304.151C477.693 305.797 473.481 306.62 469.027 306.62C465.735 306.62 462.54 306.136 459.442 305.168C456.44 304.296 453.778 302.941 451.454 301.101C449.13 299.262 447.291 296.986 445.935 294.275C444.58 291.564 443.902 288.417 443.902 284.835C443.902 280.768 444.628 277.331 446.08 274.523C447.63 271.715 449.663 269.392 452.18 267.552C454.794 265.712 457.748 264.308 461.04 263.34C464.332 262.275 467.72 261.501 471.206 261.016C474.788 260.532 478.322 260.242 481.808 260.145C485.391 260.048 488.683 260 491.684 260C491.684 256.127 490.28 253.077 487.472 250.85C484.761 248.526 481.518 247.364 477.742 247.364C474.159 247.364 470.867 248.139 467.866 249.688C464.961 251.14 462.347 253.174 460.023 255.788L448.404 243.879C452.471 240.103 457.215 237.295 462.637 235.455C468.059 233.519 473.675 232.55 479.484 232.55C485.875 232.55 491.103 233.373 495.17 235.019C499.333 236.569 502.625 238.892 505.046 241.991C507.563 245.089 509.306 248.914 510.274 253.464C511.242 257.918 511.727 263.098 511.727 269.004V304.877H491.684V296.018ZM486.31 273.942C484.664 273.942 482.583 274.039 480.065 274.233C477.645 274.33 475.273 274.717 472.949 275.395C470.722 276.072 468.785 277.089 467.139 278.445C465.59 279.8 464.816 281.688 464.816 284.109C464.816 286.723 465.929 288.659 468.156 289.918C470.383 291.177 472.707 291.806 475.127 291.806C477.257 291.806 479.291 291.516 481.227 290.935C483.26 290.354 485.052 289.531 486.601 288.466C488.15 287.401 489.36 286.045 490.232 284.399C491.2 282.753 491.684 280.817 491.684 278.59V273.942H486.31Z" fill="#2EAADC"/>
<path d="M565.334 255.062C562.139 251.092 557.927 249.107 552.699 249.107C550.859 249.107 549.068 249.543 547.325 250.414C545.582 251.286 544.711 252.786 544.711 254.917C544.711 256.659 545.582 257.966 547.325 258.838C549.165 259.612 551.44 260.339 554.151 261.016C556.959 261.597 559.912 262.275 563.01 263.05C566.205 263.727 569.159 264.841 571.87 266.39C574.677 267.939 576.953 270.069 578.696 272.78C580.535 275.395 581.455 278.929 581.455 283.383C581.455 287.933 580.438 291.709 578.405 294.711C576.469 297.616 573.951 299.988 570.853 301.827C567.755 303.57 564.269 304.781 560.396 305.458C556.523 306.233 552.699 306.62 548.922 306.62C543.984 306.62 538.998 305.942 533.963 304.587C528.928 303.135 524.668 300.617 521.183 297.035L534.399 282.366C536.432 284.883 538.659 286.82 541.08 288.175C543.597 289.434 546.502 290.063 549.794 290.063C552.311 290.063 554.587 289.725 556.62 289.047C558.653 288.272 559.67 286.917 559.67 284.98C559.67 283.141 558.75 281.785 556.91 280.914C555.168 279.945 552.892 279.171 550.084 278.59C547.373 277.912 544.42 277.234 541.225 276.557C538.127 275.782 535.174 274.668 532.366 273.216C529.655 271.764 527.379 269.731 525.54 267.116C523.797 264.405 522.925 260.823 522.925 256.369C522.925 252.206 523.748 248.623 525.394 245.622C527.137 242.62 529.364 240.151 532.075 238.215C534.883 236.278 538.078 234.874 541.661 234.003C545.243 233.035 548.874 232.55 552.553 232.55C557.201 232.55 561.897 233.228 566.641 234.584C571.385 235.939 575.404 238.36 578.696 241.845L565.334 255.062Z" fill="#2EAADC"/>
<path d="M640.695 251.721H621.524V275.249C621.524 277.186 621.621 278.977 621.814 280.623C622.008 282.172 622.444 283.528 623.122 284.69C623.799 285.852 624.816 286.771 626.172 287.449C627.624 288.03 629.512 288.321 631.836 288.321C632.998 288.321 634.498 288.224 636.338 288.03C638.274 287.74 639.727 287.159 640.695 286.287V304.442C638.274 305.313 635.757 305.894 633.143 306.184C630.529 306.475 627.963 306.62 625.445 306.62C621.766 306.62 618.377 306.233 615.279 305.458C612.181 304.684 609.47 303.473 607.146 301.827C604.822 300.085 602.982 297.858 601.627 295.147C600.368 292.436 599.739 289.144 599.739 285.271V251.721H585.796V234.293H599.739V213.379H621.524V234.293H640.695V251.721Z" fill="#2EAADC"/>
</svg>
