<svg width="56" height="48" viewBox="0 0 56 48" fill="none" xmlns="http://www.w3.org/2000/svg">
<path d="M11.0605 41.7534C11.0605 42.2644 10.8774 42.6816 10.5113 43.0053C10.1451 43.3204 9.4638 43.4779 8.46744 43.4779C7.47108 43.4779 6.79406 43.3204 6.43641 43.0053C6.07874 42.6816 5.8999 42.2644 5.8999 41.7534V37.9852C5.8999 37.4741 6.07874 37.0611 6.43641 36.7461C6.79406 36.4224 7.47108 36.2607 8.46744 36.2607C9.4638 36.2607 10.1451 36.4224 10.5113 36.7461C10.8774 37.0611 11.0605 37.4741 11.0605 37.9852V41.7534ZM6.02765 41.7534C6.02765 42.2303 6.19795 42.6177 6.53859 42.9159C6.87923 43.2053 7.52217 43.3501 8.46744 43.3501C9.41271 43.3501 10.0599 43.2053 10.4091 42.9159C10.7582 42.6177 10.9328 42.2303 10.9328 41.7534V37.9852C10.9328 37.5083 10.7582 37.125 10.4091 36.8356C10.0599 36.5374 9.41271 36.3884 8.46744 36.3884C7.52217 36.3884 6.87923 36.5374 6.53859 36.8356C6.19795 37.125 6.02765 37.5083 6.02765 37.9852V41.7534Z" fill="black"/>
<path d="M19.3804 36.4141V36.5419H16.5447C16.187 36.5419 15.9017 36.6398 15.6888 36.8357C15.4759 37.0316 15.3695 37.2784 15.3695 37.5765V38.624C15.3695 38.922 15.4291 39.1306 15.5483 39.2498C15.6675 39.3692 15.8251 39.4457 16.0209 39.4799L18.7162 40.0291C18.9717 40.0803 19.1803 40.1908 19.3421 40.3613C19.5124 40.5316 19.5976 40.8382 19.5976 41.2808V42.0218C19.5976 42.3964 19.4699 42.7073 19.2144 42.9543C18.9589 43.1927 18.614 43.3119 18.1797 43.3119H14.999V43.1842H18.1797C18.5714 43.1842 18.8823 43.0778 19.1122 42.8649C19.3506 42.6434 19.4699 42.3624 19.4699 42.0218V41.2808C19.4699 40.8806 19.3975 40.6081 19.2527 40.4633C19.1165 40.3101 18.9291 40.2079 18.6906 40.1568L15.9954 39.6075C15.774 39.565 15.5909 39.4799 15.4461 39.3521C15.3099 39.2158 15.2417 38.9731 15.2417 38.624V37.5765C15.2417 37.2359 15.3609 36.9592 15.5994 36.7462C15.8378 36.5248 16.1529 36.4141 16.5447 36.4141H19.3804Z" fill="black"/>
<path d="M35.9397 39.5436C36.0931 39.5436 36.2038 39.5096 36.2718 39.4415C36.3401 39.3733 36.4465 39.2286 36.5912 39.0071L38.1497 36.6312C38.2008 36.546 38.2561 36.4908 38.3156 36.4652C38.3839 36.4312 38.4519 36.4141 38.5202 36.4141H38.7373C38.8564 36.4141 38.9416 36.4481 38.9927 36.5163C39.0523 36.5759 39.0822 36.6738 39.0822 36.8101V43.3119H38.9544V36.8101C38.9544 36.7419 38.9373 36.6823 38.9032 36.6312C38.8777 36.5716 38.8224 36.5419 38.7373 36.5419H38.5455C38.4859 36.5419 38.435 36.5503 38.3923 36.5675C38.3497 36.5844 38.3029 36.6355 38.2519 36.7206L36.6934 39.071C36.5401 39.3009 36.4209 39.4584 36.3357 39.5436C36.259 39.6287 36.1271 39.6714 35.9397 39.6714C35.7525 39.6714 35.6162 39.6287 35.531 39.5436C35.4543 39.4584 35.3393 39.3009 35.1861 39.071L33.6276 36.7206C33.5765 36.6355 33.5256 36.5844 33.4744 36.5675C33.4318 36.5503 33.3806 36.5419 33.3211 36.5419H33.1295C33.0444 36.5419 32.9889 36.5716 32.9635 36.6312C32.938 36.6823 32.9252 36.7419 32.9252 36.8101V43.3119H32.7974V36.8101C32.7974 36.6738 32.8229 36.5759 32.8741 36.5163C32.9336 36.4481 33.0188 36.4141 33.1295 36.4141H33.3466C33.4149 36.4141 33.4829 36.4312 33.5511 36.4652C33.6192 36.4908 33.6788 36.546 33.7299 36.6312L35.2884 39.0071C35.4331 39.2286 35.5395 39.3733 35.6077 39.4415C35.6758 39.5096 35.7865 39.5436 35.9397 39.5436Z" fill="black"/>
<path d="M43.6763 43.3119V36.4141H43.8041V43.1842H48.2492V40.6679H48.3771V43.3119H43.6763Z" fill="black"/>
<path d="M11.0605 41.7534C11.0605 42.2644 10.8774 42.6816 10.5113 43.0053C10.1451 43.3204 9.4638 43.4779 8.46744 43.4779C7.47108 43.4779 6.79406 43.3204 6.43641 43.0053C6.07874 42.6816 5.8999 42.2644 5.8999 41.7534V37.9852C5.8999 37.4741 6.07874 37.0611 6.43641 36.7461C6.79406 36.4224 7.47108 36.2607 8.46744 36.2607C9.4638 36.2607 10.1451 36.4224 10.5113 36.7461C10.8774 37.0611 11.0605 37.4741 11.0605 37.9852V41.7534ZM6.02765 41.7534C6.02765 42.2303 6.19795 42.6177 6.53859 42.9159C6.87923 43.2053 7.52217 43.3501 8.46744 43.3501C9.41271 43.3501 10.0599 43.2053 10.4091 42.9159C10.7582 42.6177 10.9328 42.2303 10.9328 41.7534V37.9852C10.9328 37.5083 10.7582 37.125 10.4091 36.8356C10.0599 36.5374 9.41271 36.3884 8.46744 36.3884C7.52217 36.3884 6.87923 36.5374 6.53859 36.8356C6.19795 37.125 6.02765 37.5083 6.02765 37.9852V41.7534Z" stroke="#2EAADC" stroke-width="0.89641" stroke-linejoin="round"/>
<path d="M19.3804 36.4141V36.5419H16.5447C16.187 36.5419 15.9017 36.6398 15.6888 36.8357C15.4759 37.0316 15.3695 37.2784 15.3695 37.5765V38.624C15.3695 38.922 15.4291 39.1306 15.5483 39.2498C15.6675 39.3692 15.8251 39.4457 16.0209 39.4799L18.7162 40.0291C18.9717 40.0803 19.1803 40.1908 19.3421 40.3613C19.5124 40.5316 19.5976 40.8382 19.5976 41.2808V42.0218C19.5976 42.3964 19.4699 42.7073 19.2144 42.9543C18.9589 43.1927 18.614 43.3119 18.1797 43.3119H14.999V43.1842H18.1797C18.5714 43.1842 18.8823 43.0778 19.1122 42.8649C19.3506 42.6434 19.4699 42.3624 19.4699 42.0218V41.2808C19.4699 40.8806 19.3975 40.6081 19.2527 40.4633C19.1165 40.3101 18.9291 40.2079 18.6906 40.1568L15.9954 39.6075C15.774 39.565 15.5909 39.4799 15.4461 39.3521C15.3099 39.2158 15.2417 38.9731 15.2417 38.624V37.5765C15.2417 37.2359 15.3609 36.9592 15.5994 36.7462C15.8378 36.5248 16.1529 36.4141 16.5447 36.4141H19.3804Z" stroke="#2EAADC" stroke-width="0.89641" stroke-linejoin="round"/>
<path d="M35.9397 39.5436C36.0931 39.5436 36.2038 39.5096 36.2718 39.4415C36.3401 39.3733 36.4465 39.2286 36.5912 39.0071L38.1497 36.6312C38.2008 36.546 38.2561 36.4908 38.3156 36.4652C38.3839 36.4312 38.4519 36.4141 38.5202 36.4141H38.7373C38.8564 36.4141 38.9416 36.4481 38.9927 36.5163C39.0523 36.5759 39.0822 36.6738 39.0822 36.8101V43.3119H38.9544V36.8101C38.9544 36.7419 38.9373 36.6823 38.9032 36.6312C38.8777 36.5716 38.8224 36.5419 38.7373 36.5419H38.5455C38.4859 36.5419 38.435 36.5503 38.3923 36.5675C38.3497 36.5844 38.3029 36.6355 38.2519 36.7206L36.6934 39.071C36.5401 39.3009 36.4209 39.4584 36.3357 39.5436C36.259 39.6287 36.1271 39.6714 35.9397 39.6714C35.7525 39.6714 35.6162 39.6287 35.531 39.5436C35.4543 39.4584 35.3393 39.3009 35.1861 39.071L33.6276 36.7206C33.5765 36.6355 33.5256 36.5844 33.4744 36.5675C33.4318 36.5503 33.3806 36.5419 33.3211 36.5419H33.1295C33.0444 36.5419 32.9889 36.5716 32.9635 36.6312C32.938 36.6823 32.9252 36.7419 32.9252 36.8101V43.3119H32.7974V36.8101C32.7974 36.6738 32.8229 36.5759 32.8741 36.5163C32.9336 36.4481 33.0188 36.4141 33.1295 36.4141H33.3466C33.4149 36.4141 33.4829 36.4312 33.5511 36.4652C33.6192 36.4908 33.6788 36.546 33.7299 36.6312L35.2884 39.0071C35.4331 39.2286 35.5395 39.3733 35.6077 39.4415C35.6758 39.5096 35.7865 39.5436 35.9397 39.5436Z" stroke="#2EAADC" stroke-width="0.89641" stroke-linejoin="round"/>
<path d="M43.6763 43.3119V36.4141H43.8041V43.1842H48.2492V40.6679H48.3771V43.3119H43.6763Z" stroke="#2EAADC" stroke-width="0.89641" stroke-linejoin="round"/>
<path d="M28.1735 43.3119V41.0509H25.1205C24.6352 41.0509 24.2775 40.9402 24.0476 40.7188C23.8177 40.4889 23.7026 40.1524 23.7026 39.7098V36.4141H23.8305V39.7098C23.8305 40.1184 23.9369 40.425 24.1498 40.6293C24.3626 40.8252 24.6863 40.9231 25.1205 40.9231H28.1735V36.4141H28.3012V43.3119H28.1735Z" fill="black" stroke="#FF9400" stroke-width="0.89641" stroke-linejoin="round"/>
<path d="M17.3463 9.13802C16.9563 9.02477 16.4901 9.19945 16.3049 9.5282C16.1197 9.85694 16.2858 10.2152 16.6758 10.3285L17.3463 9.13802ZM21.3825 11.0525L21.0265 11.6414L21.3825 11.0525ZM22.9748 11.5872L23.3523 11.0055L22.9748 11.5872ZM39.3361 19.4224L39.8576 18.9097L39.3361 19.4224ZM35.9568 17.4418L35.4691 17.9745L35.9568 17.4418ZM46.3688 27.835C46.1493 28.1118 45.5353 28.409 44.1533 28.4583C42.8327 28.5055 41.0707 28.3124 38.9721 27.8772C34.7863 27.0094 29.4291 25.2155 23.9089 22.6921L23.0269 23.8046C28.6209 26.3612 34.0919 28.2001 38.4283 29.0992C40.5905 29.5474 42.5132 29.7712 44.0481 29.7163C45.5216 29.6636 46.9341 29.3401 47.6598 28.4251L46.3688 27.835ZM23.9089 22.6921C18.3884 20.1688 13.7931 17.4139 10.8241 15.0114C9.3354 13.8068 8.28582 12.7149 7.72267 11.8067C7.1332 10.8562 7.19188 10.3052 7.41137 10.0283L6.1204 9.43821C5.39487 10.3534 5.67951 11.4527 6.30787 12.466C6.96255 13.5217 8.12266 14.707 9.65649 15.9482C12.7324 18.4372 17.4331 21.2477 23.0269 23.8046L23.9089 22.6921ZM16.6758 10.3285C17.1821 10.4755 20.5398 11.4857 21.0265 11.6414L21.7384 10.4636C21.232 10.3016 17.8589 9.28687 17.3463 9.13802L16.6758 10.3285ZM21.0265 11.6414C21.5532 11.8098 22.0751 11.9852 22.5972 12.1689L23.3523 11.0055C22.8161 10.8169 22.28 10.6367 21.7384 10.4636L21.0265 11.6414ZM22.5972 12.1689C24.8679 12.9678 27.1489 13.9267 29.8714 15.171L30.7532 14.0587C28.0097 12.8048 25.6835 11.8257 23.3523 11.0055L22.5972 12.1689ZM38.8143 19.9351C41.6857 21.7371 43.8797 23.4651 45.1879 24.9237C45.8439 25.6553 46.2508 26.2902 46.426 26.8094C46.6026 27.3321 46.5174 27.6473 46.3688 27.835L47.6598 28.4251C48.1666 27.7856 48.1736 27.0533 47.9382 26.3563C47.7019 25.6556 47.1933 24.8987 46.4899 24.1145C45.0791 22.5415 42.7783 20.7427 39.8576 18.9097L38.8143 19.9351ZM29.8714 15.171C31.8678 16.0836 33.745 17.0273 35.4691 17.9745L36.4445 16.9092C34.6892 15.9448 32.7807 14.9855 30.7532 14.0587L29.8714 15.171ZM35.4691 17.9745C36.6618 18.6297 37.7805 19.2863 38.8143 19.9351L39.8576 18.9097C38.8004 18.2461 37.6588 17.5763 36.4445 16.9092L35.4691 17.9745Z" fill="#FF9400"/>
<path d="M11.8867 12.0234C13.4243 12.0234 14.6708 10.7769 14.6708 9.23923C14.6708 7.70158 13.4243 6.45508 11.8867 6.45508C10.349 6.45508 9.10254 7.70158 9.10254 9.23923C9.10254 10.7769 10.349 12.0234 11.8867 12.0234Z" stroke="#FF9400" stroke-width="1.29232"/>
<path d="M26.9622 27.8921C31.7964 27.8921 35.7154 23.9732 35.7154 19.1389C35.7154 14.3047 31.7964 10.3857 26.9622 10.3857C22.1279 10.3857 18.209 14.3047 18.209 19.1389C18.209 23.9732 22.1279 27.8921 26.9622 27.8921Z" fill="#2EAADC" stroke="#2EAADC" stroke-width="5.91431"/>
<path d="M7.41137 10.0282C7.65488 9.72109 7.56328 9.34 7.20679 9.17705C6.8503 9.01411 6.3639 9.13102 6.1204 9.43817L7.41137 10.0282ZM46.3688 27.835C46.1493 28.1116 45.5353 28.409 44.1533 28.4583C42.8327 28.5055 41.0707 28.3122 38.9721 27.8772C34.7863 27.0094 29.4291 25.2153 23.9089 22.6921L23.0271 23.8044C28.6209 26.3612 34.0919 28.2001 38.4283 29.099C40.5905 29.5474 42.5132 29.771 44.0483 29.7163C45.5216 29.6636 46.9341 29.3401 47.6598 28.4249L46.3688 27.835ZM23.9089 22.6921C18.3884 20.1688 13.7931 17.4138 10.8241 15.0113C9.3354 13.8067 8.28582 12.7148 7.72267 11.8067C7.13322 10.8562 7.19188 10.3051 7.41137 10.0282L6.1204 9.43817C5.39487 10.3534 5.67951 11.4527 6.30787 12.466C6.96255 13.5216 8.12268 14.707 9.65649 15.9481C12.7324 18.4371 17.4331 21.2477 23.0271 23.8044L23.9089 22.6921Z" fill="#FF9400"/>
</svg>
