<svg width="16" height="18" viewBox="0 0 16 18" fill="none" xmlns="http://www.w3.org/2000/svg">
<path d="M2.52476 18C2.10809 18 1.75392 17.8542 1.46226 17.5625C1.17059 17.2708 1.02476 16.9167 1.02476 16.5V2.25H-0.000244141V0.75H4.69976V0H11.2998V0.75H15.9998V2.25H14.9748V16.5C14.9748 16.9 14.8248 17.25 14.5248 17.55C14.2248 17.85 13.8748 18 13.4748 18H2.52476ZM13.4748 2.25H2.52476V16.5H13.4748V2.25ZM5.17476 14.35H6.67476V4.375H5.17476V14.35ZM9.32476 14.35H10.8248V4.375H9.32476V14.35ZM2.52476 2.25V16.5V2.25Z" fill="#2eaadc" fill-opacity="0.87"/>
</svg>
