<svg width="19" height="19" viewBox="0 0 19 19" xmlns="http://www.w3.org/2000/svg">
<path d="M1.49976 17.5H2.59976L13.6748 6.42505L12.5748 5.32505L1.49976 16.4V17.5ZM16.8498 5.35005L13.6498 2.15005L14.6998 1.10005C14.9831 0.816715 15.3331 0.675049 15.7498 0.675049C16.1664 0.675049 16.5164 0.816715 16.7998 1.10005L17.8998 2.20005C18.1831 2.48338 18.3248 2.83338 18.3248 3.25005C18.3248 3.66672 18.1831 4.01672 17.8998 4.30005L16.8498 5.35005ZM15.7998 6.40005L3.19976 19H-0.000244141V15.8L12.5998 3.20005L15.7998 6.40005ZM13.1248 5.87505L12.5748 5.32505L13.6748 6.42505L13.1248 5.87505Z" fill="currentColor" fill-opacity="0.87"/>
</svg>
