<svg width="144" height="122" viewBox="0 0 144 122" fill="none" xmlns="http://www.w3.org/2000/svg">
<path fill-rule="evenodd" clip-rule="evenodd" d="M10.3093 79.3591C10.3194 79.3353 10.3227 79.3123 10.3227 79.3013C10.3227 79.2903 10.3194 79.2673 10.3093 79.2436C10.3007 79.2234 10.2912 79.2115 10.2846 79.205C10.278 79.1985 10.2685 79.1913 10.2541 79.1852C10.2465 79.182 10.2385 79.1795 10.2309 79.178C10.2249 79.1768 10.221 79.1765 10.2201 79.1764C10.2202 79.1764 10.2203 79.1764 10.2203 79.1764C10.2203 79.1764 10.2202 79.1764 10.2201 79.1764C10.2199 79.1764 10.2198 79.1764 10.2198 79.1764C10.2198 79.1764 10.2199 79.1764 10.2201 79.1764C10.2191 79.1765 10.2153 79.1768 10.2092 79.178C10.2016 79.1795 10.1936 79.182 10.186 79.1852C10.1716 79.1913 10.1621 79.1985 10.1555 79.205C10.149 79.2115 10.1394 79.2234 10.1308 79.2436C10.1207 79.2673 10.1174 79.2903 10.1174 79.3013C10.1174 79.3123 10.1207 79.3353 10.1308 79.3591C10.1394 79.3793 10.149 79.3912 10.1555 79.3977C10.1621 79.4042 10.1716 79.4114 10.186 79.4175C10.1936 79.4207 10.2016 79.4231 10.2092 79.4247C10.2171 79.4263 10.2213 79.4262 10.2201 79.4262C10.2188 79.4262 10.223 79.4263 10.2309 79.4247C10.2385 79.4231 10.2465 79.4207 10.2541 79.4175C10.2686 79.4114 10.2781 79.4042 10.2846 79.3977C10.2912 79.3912 10.3007 79.3793 10.3093 79.3591ZM0 79.3013C0 73.6478 4.59714 69.1035 10.2201 69.1035C15.843 69.1035 20.4401 73.6478 20.4401 79.3013C20.4401 84.9549 15.843 89.4991 10.2201 89.4991C4.59715 89.4991 0 84.9549 0 79.3013Z" fill="#2EAADC"/>
<path fill-rule="evenodd" clip-rule="evenodd" d="M64.5 10.3227C49.4777 10.3227 37.3149 22.4647 37.3149 37.3656V57.463C37.3149 60.3135 35.0041 62.6243 32.1535 62.6243C29.303 62.6243 26.9922 60.3135 26.9922 57.463V37.3656C26.9922 16.7208 43.8196 0 64.5 0C85.1805 0 102.008 16.7208 102.008 37.3656V48.6492C102.008 51.4997 99.697 53.8105 96.8465 53.8105C93.996 53.8105 91.6851 51.4997 91.6851 48.6492V37.3656C91.6851 22.4647 79.5223 10.3227 64.5 10.3227Z" fill="#2EAADC"/>
<path fill-rule="evenodd" clip-rule="evenodd" d="M32.1546 52.5439C35.0051 52.5439 37.3159 54.8548 37.3159 57.7053C37.3159 72.442 25.304 84.3684 10.5578 84.3684C7.7073 84.3684 5.39648 82.0576 5.39648 79.2071C5.39648 76.3565 7.7073 74.0457 10.5578 74.0457C19.6459 74.0457 26.9932 66.6981 26.9932 57.7053C26.9932 54.8548 29.304 52.5439 32.1546 52.5439Z" fill="#2EAADC"/>
<path fill-rule="evenodd" clip-rule="evenodd" d="M139.024 23.5371C139.413 26.3609 137.44 28.9655 134.616 29.3546C130.575 29.9114 127.869 31.6992 125.997 34.6439C123.984 37.8104 122.677 42.7459 122.632 49.8925C122.535 64.547 110.56 76.3775 95.8737 76.3775C81.1276 76.3775 69.1156 64.4511 69.1156 49.7144V37.1717C69.1156 34.4745 66.9243 32.2601 64.1596 32.2601C61.3949 32.2601 59.2036 34.4745 59.2036 37.1717V54.7508C59.2036 71.2545 72.6357 84.6993 89.3072 84.6993C104.053 84.6993 116.065 96.6258 116.065 111.362C116.065 114.213 113.754 116.524 110.904 116.524C108.053 116.524 105.743 114.213 105.743 111.362C105.743 102.37 98.3952 95.0221 89.3072 95.0221C66.9683 95.0221 48.8809 76.9891 48.8809 54.7508V37.0264C48.959 28.6528 55.7852 21.9374 64.1596 21.9374C72.5341 21.9374 79.3596 28.6528 79.4377 37.0264L79.4384 49.7144C79.4384 58.7071 86.7857 66.0548 95.8737 66.0548C104.962 66.0548 112.309 58.7071 112.309 49.7144C112.374 41.6049 113.842 34.5225 117.286 29.106C120.886 23.4428 126.352 20.073 133.207 19.1285C136.031 18.7394 138.635 20.7132 139.024 23.5371Z" fill="#FF9400"/>
<path fill-rule="evenodd" clip-rule="evenodd" d="M110.993 111.42C111.003 111.396 111.006 111.373 111.006 111.362C111.006 111.351 111.003 111.328 110.993 111.305C110.984 111.284 110.975 111.273 110.968 111.266C110.962 111.259 110.952 111.252 110.938 111.246C110.93 111.243 110.922 111.241 110.914 111.239C110.908 111.238 110.905 111.238 110.904 111.237C110.905 111.237 110.901 111.237 110.893 111.239C110.885 111.241 110.877 111.243 110.87 111.246C110.855 111.252 110.846 111.259 110.839 111.266C110.833 111.273 110.823 111.284 110.814 111.305C110.804 111.328 110.801 111.351 110.801 111.362C110.801 111.373 110.804 111.396 110.814 111.42C110.823 111.44 110.833 111.452 110.839 111.459C110.846 111.465 110.855 111.472 110.87 111.479C110.877 111.482 110.885 111.484 110.893 111.486C110.901 111.487 110.905 111.487 110.904 111.487C110.905 111.487 110.908 111.487 110.914 111.486C110.922 111.484 110.93 111.482 110.938 111.478C110.952 111.472 110.962 111.465 110.968 111.459C110.975 111.452 110.984 111.44 110.993 111.42ZM110.904 111.487C110.903 111.487 110.903 111.487 110.903 111.487C110.903 111.487 110.903 111.487 110.904 111.487ZM100.684 111.362C100.684 105.709 105.281 101.165 110.904 101.165C116.527 101.165 121.124 105.709 121.124 111.362C121.124 117.016 116.527 121.56 110.904 121.56C105.281 121.56 100.684 117.016 100.684 111.362ZM110.904 111.237C110.903 111.237 110.903 111.237 110.903 111.237C110.903 111.237 110.903 111.237 110.904 111.237Z" fill="#FF9400"/>
<path fill-rule="evenodd" clip-rule="evenodd" d="M133.718 24.506C133.728 24.4823 133.731 24.4593 133.731 24.4483C133.731 24.4373 133.728 24.4143 133.718 24.3906C133.709 24.3703 133.699 24.3585 133.693 24.3519C133.686 24.3454 133.677 24.3382 133.662 24.3322C133.655 24.329 133.647 24.3265 133.639 24.325C133.633 24.3237 133.629 24.3234 133.628 24.3234C133.63 24.3234 133.625 24.3233 133.617 24.325C133.61 24.3265 133.602 24.329 133.594 24.3322C133.58 24.3382 133.57 24.3454 133.564 24.3519C133.557 24.3585 133.548 24.3703 133.539 24.3906C133.529 24.4143 133.526 24.4373 133.526 24.4483C133.526 24.4593 133.529 24.4823 133.539 24.506C133.548 24.5263 133.557 24.5381 133.564 24.5447C133.57 24.5512 133.58 24.5584 133.594 24.5644C133.602 24.5676 133.61 24.5701 133.617 24.5716C133.625 24.5732 133.63 24.5732 133.628 24.5732C133.629 24.5731 133.633 24.5729 133.639 24.5716C133.647 24.5701 133.655 24.5676 133.662 24.5644C133.677 24.5583 133.686 24.5512 133.693 24.5447C133.699 24.5381 133.709 24.5263 133.718 24.506ZM133.628 24.5732C133.628 24.5732 133.628 24.5732 133.628 24.5732C133.628 24.5732 133.628 24.5732 133.628 24.5732ZM123.408 24.4483C123.408 18.7948 128.005 14.2505 133.628 14.2505C139.251 14.2505 143.848 18.7948 143.848 24.4483C143.848 30.1018 139.251 34.6461 133.628 34.6461C128.005 34.6461 123.408 30.1018 123.408 24.4483ZM133.628 24.3234C133.628 24.3234 133.628 24.3234 133.628 24.3234C133.628 24.3234 133.628 24.3234 133.628 24.3234Z" fill="#FF9400"/>
</svg>
